<svg xmlns="http://www.w3.org/2000/svg" version="1.1" xmlns:xlink="http://www.w3.org/1999/xlink" xmlns:svgjs="http://svgjs.dev/svgjs" width="1000" height="1125" viewBox="0 0 1000 1125"><g transform="matrix(1,0,0,1,1.7053025658242404e-13,0)"><svg viewBox="0 0 320 360" data-background-color="#ffffff" preserveAspectRatio="xMidYMid meet" height="1125" width="1000" xmlns="http://www.w3.org/2000/svg" xmlns:xlink="http://www.w3.org/1999/xlink"><g id="tight-bounds" transform="matrix(1,0,0,1,0,0)"><svg viewBox="0 0 320 360" height="360" width="320"><g><svg></svg></g><g><svg viewBox="0 0 320 360" height="360" width="320"><g><path xmlns="http://www.w3.org/2000/svg" d="M20.961 227.22l3.726 4.658-1.863-6.056c-0.466-2.795-3.726 0.466-1.863 1.398M25.153 224.425c1.397 2.329 2.795 4.658 2.795 6.987 0 3.261 2.795 4.658 5.123 5.589-3.261-3.726-5.124-13.974-7.918-12.576M204.017 26.929c7.918 0 15.371-0.932 23.756 0.931 20.495 5.124 37.729 15.371 49.374 29.811l32.606 52.169c1.397 13.042 4.192 27.482 3.726 43.319 3.261 0 2.795-4.658 6.521-5.59-3.726 9.316-5.59 20.961-6.521 34.469-2.329-7.453 0-18.632 0.466-24.687-3.261 5.124-5.124 1.397-5.124-0.932 0.466-3.726-1.397-3.261-2.795-4.658-5.124-4.658-8.384-9.782-12.11-17.7 2.329-6.055 2.795-14.905-4.658-19.563-2.329-1.397-5.124-3.726-6.521-7.453-1.863-5.124-5.124-11.179-4.193-19.097 0.466-2.329-6.987 5.124-11.179 1.863-18.166-12.576-36.332-27.016-58.224-39.127-11.645 0-20.029-4.192-24.221-9.316-3.726-4.658-0.932-10.713 4.658-11.179 3.261 0 6.987-0.932 9.782 0.932 0.466-1.863 2.329-4.192 4.657-4.192M157.904 16.215l0.932 0.466c4.658 0.932 6.987 7.453 12.11 5.124 0 3.261 0.466 6.521-0.466 8.85-1.397 3.726-5.59 3.726-8.85 3.726-31.208-1.863-49.374 11.179-68.471 22.358-5.124 3.261-10.713 5.59-14.906 9.782-20.029 18.632-41.921 35.866-47.045 70.335l-4.192 38.195c-0.466 4.192-5.124 8.384-4.192 13.508l3.26 22.824c-3.261-3.261-5.124 0.932-4.192 2.795 0.466 1.397 2.329 6.055 5.124 1.863 3.726 6.987 7.453 20.495 12.576 26.55 15.837 18.632 36.332 35.4 53.101 52.169 4.192-0.932 7.453-0.932 8.384-3.727 1.397 2.795-1.397 5.59-3.726 6.056 7.453 4.658 15.837 8.85 27.016 9.781 14.44 0.932 27.948 3.261 40.524 6.522 6.521-1.863 13.042-2.795 20.029-3.261 2.329 0 3.726-3.726 6.521-4.658l0.466-4.658c2.795 4.192 2.329-1.397 0.466-4.192 3.261 2.795 4.192 5.124 5.589 6.987 0-1.397 3.726-6.521 3.727-0.466l0.931-6.055c1.397-0.932 1.863 5.124 3.261 0.931 1.397-4.192 4.192-0.932 6.987-2.329-0.932 1.863-0.466 5.59 2.794 3.261l3.727-3.261c2.329 5.59 6.055 3.261 7.918 2.329 20.495-13.042 40.99-28.413 60.553-43.784l-0.466 6.055 2.329-7.453c2.329 2.329 4.192 0.466 5.124-0.931 2.795-4.658 6.521-9.316 12.577-13.508-7.453 20.029-16.303 35.866-27.482 48.908l-4.658 5.59c0 3.261-0.932 7.453-4.658 7.918-1.863 0.466-5.59-0.932-8.384 1.863-1.397 1.863 3.261 5.59-0.466 2.795-3.261-2.329-6.521 0-10.248 0.932-2.795 0.932 1.863 3.726 2.795 5.589 0.932 1.863 1.863 3.726 1.398 6.056l-5.124-5.59c-6.055 3.261-9.782 9.316-14.906 13.974-2.329 1.863-1.397 5.124-1.397 7.918-3.261 0-6.987-0.932-8.85 0.932-1.397 1.863-0.932 4.658-0.932 7.453-4.658-0.466-5.124-7.453-9.315-6.056-4.192 0.932-8.85 1.397-12.577 3.727 2.795 5.59-4.658 2.329-3.726 3.26-6.987-4.192-13.042-7.453-20.495-4.658-15.837-5.124-35.4-2.795-49.84-0.931 0-2.329 0.466-4.658-0.466-5.124-0.932 2.329-3.726 1.397-3.26 1.397-8.85-6.055-17.7-9.782-27.016-14.905-8.384 0.932-16.303-3.261-18.632-5.59-6.521-6.055-13.974-2.795-20.029-4.192-13.042-3.261-17.7-16.769-19.098-26.084-0.932-4.658-4.658-6.521-6.055-6.056-6.055-19.563-15.371-37.263-22.824-55.429-1.863-4.658-1.397-9.316-1.397-14.44 2.329 0.932 4.658 0.466 4.192-2.794-2.329-15.371-7.918-27.016-13.974-38.195 3.261-15.837 3.726-34.469 11.179-48.443 6.521-12.576 18.632-19.098 27.016-29.811 2.795-3.726 2.795-8.85 5.59-12.11 9.316-9.316 18.632-19.098 28.879-27.482 4.658-3.726 10.247 0 17.234-1.397 2.329-8.384 11.645-15.837 20.495-13.508 3.726 0.932 11.179-8.85 13.508-9.782 3.726-1.397 1.863 3.726 1.863 6.987 8.85-6.987 20.961-10.713 32.14-14.906" fill="#ff0000" fill-rule="nonzero" stroke="none" stroke-width="1" stroke-linecap="butt" stroke-linejoin="miter" stroke-miterlimit="10" stroke-dasharray="" stroke-dashoffset="0" font-family="none" font-weight="none" font-size="none" text-anchor="none" style="mix-blend-mode: normal" data-fill-palette-color="tertiary"></path></g><g transform="matrix(1,0,0,1,64,127.31779008724561)"><svg viewBox="0 0 192 105.36441982550878" height="105.36441982550878" width="192"><g><svg viewBox="0 0 192 105.36441982550878" height="105.36441982550878" width="192"><g transform="matrix(1,0,0,1,0,57.06189881710541)"><svg viewBox="0 0 192 48.30252100840336" height="48.30252100840336" width="192"><g id="textblocktransform"><svg viewBox="0 0 192 48.30252100840336" height="48.30252100840336" width="192" id="textblock"><g><svg viewBox="0 0 192 48.30252100840336" height="48.30252100840336" width="192"><g transform="matrix(1,0,0,1,0,0)"><svg width="192" viewBox="0.30000001192092896 -36.650001525878906 190.37998962402344 47.900001525878906" height="48.30252100840336" data-palette-color="#ff0000"><path d="M10.7-25.75Q11.75-25.75 14.03-25.83 16.3-25.9 16.6-25.95L16.6-25.95 16.55-24.4Q16.5-23.65 16.05-23.23 15.6-22.8 14.9-22.8L14.9-22.8 10.45-22.8 10.45-21.3 10.45-6.95Q10.45-4.3 12.75-4.3L12.75-4.3Q13.35-4.3 13.98-4.48 14.6-4.65 14.75-5L14.75-5Q15.4-4.15 15.4-2.95L15.4-2.95Q15.4-1.4 13.95-0.45 12.5 0.5 10.1 0.5L10.1 0.5Q7.2 0.5 5.6-1.35 4-3.2 4-6.4L4-6.4 4-22.8 3.3-22.8Q1.25-22.8 0.3-22.65L0.3-22.65 0.35-24.2Q0.4-24.95 0.88-25.35 1.35-25.75 2.05-25.75L2.05-25.75 4-25.75 4-29.1Q4-30.65 5.05-31.55 6.1-32.45 7.75-32.45L7.75-32.45Q8.95-32.45 9.9-32 10.85-31.55 11.4-31L11.4-31Q10.75-28.45 10.55-25.75L10.55-25.75 10.7-25.75ZM33.95-26.5Q36.8-26.5 38.57-24.98 40.35-23.45 40.35-20.8L40.35-20.8Q40.35-18.9 39.2-17.65 38.05-16.4 36.3-16.35L36.3-16.35Q34.3-16.35 33.35-17.4L33.35-17.4Q33.9-18.3 34.1-19.05 34.3-19.8 34.3-20.8L34.3-20.8Q34.3-22.1 33.75-22.78 33.2-23.45 32.1-23.45L32.1-23.45Q30.25-23.45 29.2-20.53 28.15-17.6 28.15-11.8L28.15-11.8Q28.15-6.45 28.3-4.58 28.45-2.7 29.2-0.9L29.2-0.9Q28.65-0.35 27.7 0.08 26.75 0.5 25.5 0.55L25.5 0.55Q23.95 0.55 22.85-0.45 21.75-1.45 21.75-3.15L21.75-3.15 21.75-19Q21.75-20.4 21.42-21.03 21.1-21.65 20.4-21.65L20.4-21.65Q19.45-21.65 19.1-21.05L19.1-21.05Q18.5-22.05 18.5-23.1L18.5-23.1Q18.5-24.6 19.52-25.53 20.55-26.45 22.4-26.45L22.4-26.45Q24.6-26.45 25.9-25.1 27.2-23.75 27.4-21.05L27.4-21.05Q29.1-26.5 33.95-26.5L33.95-26.5ZM68.75-4.7Q69.4-3.75 69.4-2.7L69.4-2.7Q69.4-1.15 68.37-0.25 67.34 0.65 65.45 0.65L65.45 0.65Q63.2 0.65 61.87-0.8 60.55-2.25 60.45-5.15L60.45-5.15Q58.34 0.75 52.3 0.75L52.3 0.75Q48.2 0.75 46.3-1.6 44.4-3.95 44.4-9.4L44.4-9.4 44.4-18.7Q44.4-22.5 43.45-25.05L43.45-25.05Q45.2-26.5 47.15-26.5L47.15-26.5Q48.8-26.5 49.82-25.6 50.84-24.7 50.84-23.1L50.84-23.1 50.9-10.4Q50.9-6.1 51.65-4.2 52.4-2.3 54.45-2.3L54.45-2.3Q56.84-2.3 58.3-5.3 59.75-8.3 59.75-14L59.75-14Q59.75-19.5 59.59-21.38 59.45-23.25 58.65-25.1L58.65-25.1Q59.2-25.6 60.17-26.05 61.15-26.5 62.34-26.5L62.34-26.5Q63.95-26.5 65.02-25.5 66.09-24.5 66.09-22.8L66.09-22.8 66.15-6.75Q66.15-5.35 66.45-4.75 66.75-4.15 67.45-4.15L67.45-4.15Q68.3-4.15 68.75-4.7L68.75-4.7ZM84.39 0.7Q78.39 0.7 75.12-2.85 71.84-6.4 71.84-12.95L71.84-12.95Q71.84-19.3 75.17-22.9 78.49-26.5 84.59-26.5L84.59-26.5Q89.04-26.5 91.39-24.68 93.74-22.85 93.74-20.1L93.74-20.1Q93.74-18.1 92.49-16.9 91.24-15.7 89.24-15.7L89.24-15.7Q88.24-15.7 87.32-16 86.39-16.3 85.84-16.9L85.84-16.9Q87.29-18.05 87.29-20.65L87.29-20.65Q87.29-24.25 84.04-24.25L84.04-24.25Q81.59-24.25 80.19-21.55 78.79-18.85 78.79-13.95L78.79-13.95Q78.79-3.35 86.34-3.35L86.34-3.35Q88.94-3.35 90.77-4.63 92.59-5.9 93.14-7.95L93.14-7.95Q93.99-7.6 93.99-6.3L93.99-6.3Q93.99-5.65 93.79-4.9L93.79-4.9Q93.04-2.25 90.54-0.78 88.04 0.7 84.39 0.7L84.39 0.7ZM121.54-5.15Q122.39-4.3 122.39-3.05L122.39-3.05Q122.39-1.45 121.04-0.38 119.69 0.7 117.69 0.7L117.69 0.7Q115.99 0.7 114.61-0.25 113.24-1.2 112.49-3.15L112.49-3.15 109.24-10.8Q106.89-10.15 105.44-9.9L105.44-9.9Q105.44-5.6 105.61-4.03 105.79-2.45 106.54-0.7L106.54-0.7Q105.74-0.05 104.86 0.33 103.99 0.7 102.64 0.7L102.64 0.7Q100.59 0.7 99.84-0.25 99.09-1.2 99.09-2.95L99.09-2.95 99.04-33.25Q99.04-34.85 100.06-35.75 101.09-36.65 102.74-36.65L102.74-36.65Q103.99-36.65 104.91-36.2 105.84-35.75 106.39-35.2L106.39-35.2Q105.84-32.35 105.69-30.53 105.54-28.7 105.49-26.25L105.49-26.25 105.39-23.5 105.34-20.2Q106.49-23.15 108.77-24.83 111.04-26.5 114.34-26.5L114.34-26.5Q117.54-26.5 119.11-24.93 120.69-23.35 120.69-20.9L120.69-20.9Q120.69-18.05 118.66-15.85 116.64-13.65 113.54-12.2L113.54-12.2Q114.34-12 115.02-11.33 115.69-10.65 116.44-9.4L116.44-9.4 117.99-6.8Q118.69-5.55 119.06-5.13 119.44-4.7 120.14-4.7L120.14-4.7Q120.89-4.7 121.54-5.15L121.54-5.15ZM105.44-12.25Q108.99-13.3 111.54-15.4 114.09-17.5 114.09-20.5L114.09-20.5Q114.09-23.25 111.79-23.25L111.79-23.25Q110.04-23.25 108.59-21.78 107.14-20.3 106.29-17.78 105.44-15.25 105.44-12.25L105.44-12.25ZM129.99-28.95Q128.44-28.95 127.34-30.03 126.24-31.1 126.24-32.65L126.24-32.65Q126.24-34.25 127.34-35.33 128.44-36.4 129.99-36.4L129.99-36.4Q131.54-36.4 132.59-35.33 133.64-34.25 133.64-32.65L133.64-32.65Q133.64-31.1 132.59-30.03 131.54-28.95 129.99-28.95L129.99-28.95ZM133.44-7.05Q133.44-3.1 134.39-0.75L134.39-0.75Q132.79 0.7 130.64 0.7L130.64 0.7Q129.09 0.7 128.06-0.2 127.04-1.1 127.04-2.65L127.04-2.65 127.04-18.75Q127.04-22.55 126.09-25.1L126.09-25.1Q127.64-26.5 129.69-26.5L129.69-26.5Q131.34-26.5 132.36-25.63 133.39-24.75 133.39-23.15L133.39-23.15 133.44-7.05ZM162.99-7.05Q163.14-2.9 163.99-0.75L163.99-0.75Q162.34 0.7 160.24 0.7L160.24 0.7Q158.64 0.7 157.59-0.2 156.54-1.1 156.54-2.65L156.54-2.65 156.54-15.4Q156.49-19.45 155.69-21.35 154.89-23.25 152.74-23.25L152.74-23.25Q150.34-23.25 148.84-20.33 147.34-17.4 147.34-11.8L147.34-11.8Q147.34-6.3 147.49-4.42 147.64-2.55 148.39-0.7L148.39-0.7Q147.89-0.2 146.91 0.25 145.94 0.7 144.74 0.7L144.74 0.7Q143.03 0.7 141.99-0.3 140.94-1.3 140.94-2.95L140.94-2.95 140.94-19Q140.89-20.4 140.59-21.03 140.28-21.65 139.59-21.65L139.59-21.65Q138.64-21.65 138.28-21.05L138.28-21.05Q137.69-22.05 137.69-23.1L137.69-23.1Q137.69-24.6 138.71-25.53 139.74-26.45 141.59-26.45L141.59-26.45Q143.89-26.45 145.21-24.98 146.53-23.5 146.59-20.55L146.59-20.55Q148.74-26.5 154.94-26.5L154.94-26.5Q159.04-26.5 161.01-23.98 162.99-21.45 162.99-16.4L162.99-16.4 162.99-7.05ZM177.48 11.25Q173.43 11.25 170.76 9.83 168.08 8.4 168.08 5.5L168.08 5.5Q168.08 3.6 169.33 2.48 170.58 1.35 172.58 1.35L172.58 1.35Q174.63 1.35 175.58 2.45L175.58 2.45Q174.08 3.75 174.08 5.85L174.08 5.85Q174.08 7.4 174.98 8.33 175.88 9.25 177.68 9.25L177.68 9.25Q180.93 9.25 182.61 6.4 184.28 3.55 184.28-1.4L184.28-1.4Q184.28-3.9 184.33-5.1L184.33-5.1Q183.48-2.65 181.56-1.35 179.63-0.05 176.78-0.05L176.78-0.05Q172.58-0.05 170.23-3 167.88-5.95 167.88-12.45L167.88-12.45Q167.88-18.9 170.78-22.7 173.68-26.5 180.08-26.5L180.08-26.5Q183.23-26.5 186.03-25.63 188.83-24.75 190.68-23.2L190.68-23.2 190.68-2.2Q190.68 4.9 187.16 8.08 183.63 11.25 177.48 11.25L177.48 11.25ZM178.73-3.05Q181.43-3.05 182.81-5.55 184.18-8.05 184.23-12.45L184.23-12.45 184.28-23.1Q183.58-23.65 182.56-23.95 181.53-24.25 180.43-24.25L180.43-24.25Q177.18-24.25 175.98-21.15 174.78-18.05 174.78-11.8L174.78-11.8Q174.78-8.5 175.16-6.63 175.53-4.75 176.38-3.9 177.23-3.05 178.73-3.05L178.73-3.05Z" opacity="1" transform="matrix(1,0,0,1,0,0)" fill="#ff0000" class="wordmark-text-0" data-fill-palette-color="primary" id="text-0"></path></svg></g></svg></g></svg></g></svg></g><g transform="matrix(1,0,0,1,36.672,0)"><svg viewBox="0 0 118.656 50.01340174147516" height="50.01340174147516" width="118.656"><g><svg xmlns="http://www.w3.org/2000/svg" xmlns:xlink="http://www.w3.org/1999/xlink" version="1.1" x="0" y="0" viewBox="1.9050005674362183 29.727998733520508 96.19001007080078 40.54400634765625" enable-background="new 0 0 100 100" xml:space="preserve" height="50.01340174147516" width="118.656" class="icon-icon-0" data-fill-palette-color="accent" id="icon-0"><path d="M97.176 62.295l-0.677-0.053V31.456c0-0.95-0.646-1.728-1.442-1.728H33.279c-0.819 0-1.486 0.777-1.486 1.728v29.482h-3.435V35.852c0-1.35-1.008-2.445-2.248-2.445h-2.43c-1.24 0-2.244 1.095-2.244 2.445v4.001h-6.496c-0.907 0-1.635 0.578-2.162 1.713-0.023 0.061-2.132 8.09-2.132 8.09l-5.729 1.286c-0.791 0.14-1.386 0.856-1.386 1.644v9.673l-0.688 0.036c-0.522 0.032-0.938 0.515-0.938 1.099 0 0.608 0.444 1.103 0.991 1.103h3.918c0.142 3.155 2.56 5.684 5.537 5.684 2.979 0 5.399-2.528 5.536-5.684H32.16c0.151 3.208 2.613 5.775 5.641 5.775 2.213 0 4.119-1.381 5.051-3.371 0.932 1.99 2.833 3.371 5.048 3.371 3.03 0 5.49-2.567 5.642-5.775h19.797c0.151 3.208 2.61 5.775 5.641 5.775 2.216 0 4.119-1.381 5.051-3.371 0.933 1.99 2.835 3.371 5.05 3.371 3.03 0 5.49-2.567 5.642-5.775h2.382c0.546 0 0.99-0.494 0.99-1.103C98.093 62.817 97.688 62.334 97.176 62.295zM12.985 48.621l1.571-6.022 0.142-0.549h0.561 5.445 0.733v0.738 6.02 0.738h-0.733l-7.016 0.003h-0.947L12.985 48.621zM12.353 60.253c1.012 0 1.927 0.441 2.596 1.145 0.656 0.725 1.066 1.722 1.066 2.824 0 1.099-0.408 2.091-1.057 2.815-0.671 0.708-1.591 1.149-2.605 1.149-1.007 0-1.918-0.436-2.589-1.134-0.656-0.729-1.061-1.729-1.061-2.831 0-1.107 0.407-2.11 1.068-2.84C10.44 60.688 11.348 60.253 12.353 60.253zM26.375 52.492v9.061 0.736h-0.73-7.771-0.28c-0.754-2.336-2.804-4.032-5.241-4.032-2.433 0-4.487 1.696-5.238 4.032H6.843 6.241 5.514v-0.736-7.905V53.06l0.571-0.132 5.191-1.164 0.079-0.018h0.08 0.1l0.027 0.008 12.045-0.008 2.038 0.008h0.73V52.492zM26.375 36.348v4.429 2.011 6.025 0.737h-0.73-1.5-0.727v-0.737V36.348v-0.738h0.727 1.5 0.73V36.348zM41.27 65.333c-0.463 1.608-1.813 2.799-3.469 2.799-1.34 0-2.458-0.798-3.104-1.94-0.31-0.591-0.534-1.239-0.534-1.97 0-1.17 0.475-2.205 1.205-2.939 0.652-0.623 1.488-1.027 2.433-1.027 1.295 0 2.382 0.757 3.038 1.839 0.369 0.627 0.637 1.33 0.637 2.128C41.476 64.616 41.368 64.974 41.27 65.333zM51.295 65.729c-0.56 1.415-1.874 2.402-3.396 2.402-1.367 0-2.503-0.827-3.142-2.004-0.293-0.574-0.499-1.202-0.499-1.906 0-1.16 0.464-2.189 1.181-2.922 0.654-0.635 1.508-1.045 2.459-1.045 1.234 0 2.278 0.693 2.947 1.696 0.425 0.653 0.723 1.41 0.723 2.271C51.569 64.759 51.467 65.262 51.295 65.729zM78.979 68.132c-1.061 0-2.002-0.494-2.674-1.264-0.576-0.708-0.954-1.621-0.954-2.646 0-1.361 0.661-2.513 1.61-3.236 0.588-0.423 1.254-0.73 2.018-0.73 1.495 0 2.77 0.958 3.348 2.327 0.208 0.501 0.331 1.05 0.335 1.636C82.648 66.384 81.007 68.132 78.979 68.132zM89.077 68.132c-1.137 0-2.115-0.58-2.791-1.446-0.498-0.686-0.839-1.518-0.839-2.464 0-1.312 0.614-2.425 1.503-3.157 0.607-0.476 1.317-0.81 2.127-0.81 1.459 0 2.694 0.925 3.289 2.235 0.234 0.529 0.391 1.104 0.394 1.729C92.745 66.384 91.105 68.132 89.077 68.132zM94.521 62.274c0 0-0.079-0.16-0.198-0.376-0.847-2.213-2.877-3.783-5.244-3.783-2.215 0-4.117 1.385-5.05 3.372-0.932-1.987-2.835-3.372-5.051-3.372-2.503 0-4.606 1.759-5.355 4.174h-0.134H53.431h-0.174c-0.748-2.415-2.854-4.174-5.357-4.174-2.215 0-4.116 1.385-5.048 3.372-0.932-1.987-2.837-3.372-5.051-3.372-1.573 0-2.994 0.693-4.023 1.804v-6.277h60.744V62.274zM94.521 43.523v7.178 0.735h-0.733H34.507h-0.729v-0.735-7.178-0.738h0.729 59.281 0.733V43.523zM94.521 32.668v7.179 0.738h-0.733H34.507h-0.729v-0.738-7.179-0.737h0.729 59.281 0.733V32.668z" fill="#ed2647" data-fill-palette-color="accent"></path></svg></g></svg></g><g></g></svg></g></svg></g></svg></g><defs></defs></svg><rect width="320" height="360" fill="none" stroke="none" visibility="hidden"></rect></g></svg></g></svg>